<?xml version="1.0" standalone="no"?>
<!DOCTYPE svg PUBLIC "-//W3C//DTD SVG 20010904//EN"
 "http://www.w3.org/TR/2001/REC-SVG-20010904/DTD/svg10.dtd">
<svg version="1.0" xmlns="http://www.w3.org/2000/svg"
 width="440.000000pt" height="232.000000pt" viewBox="0 0 440.000000 232.000000"
 preserveAspectRatio="xMidYMid meet">

<g transform="translate(0.000000,232.000000) scale(0.100000,-0.100000)"
fill="#000000" stroke="none">
<path d="M0 1160 l0 -1160 2200 0 2200 0 0 1160 0 1160 -2200 0 -2200 0 0
-1160z m1290 520 l0 -130 -130 0 -130 0 0 -515 0 -515 -135 0 -135 0 0 515 0
515 -135 0 -135 0 0 130 0 130 400 0 400 0 0 -130z m614 -173 c131 -65 221
-181 251 -324 15 -71 19 -179 9 -232 l-6 -31 -344 0 c-323 0 -343 -1 -337 -17
15 -43 59 -87 112 -111 99 -46 246 -28 317 39 l20 19 82 -84 c45 -46 82 -88
82 -94 0 -15 -67 -65 -127 -96 -77 -38 -156 -56 -253 -56 -205 0 -367 92 -452
256 -46 88 -62 158 -61 264 0 230 130 418 338 493 40 14 74 17 171 14 118 -3
124 -4 198 -40z m886 -87 l0 -130 -120 0 -120 0 0 -385 0 -385 -135 0 -135 0
0 515 0 515 255 0 255 0 0 -130z m685 109 c30 -11 69 -32 85 -46 l30 -25 0 46
0 46 135 0 135 0 0 -515 0 -515 -135 0 -135 0 0 46 0 45 -32 -25 c-54 -40
-109 -58 -198 -63 -157 -10 -279 35 -384 140 -101 100 -146 217 -146 375 0
229 133 421 344 494 75 26 228 25 301 -3z"/>
<path d="M1600 1294 c-45 -20 -87 -59 -111 -106 l-19 -38 216 0 c193 0 215 2
210 16 -3 9 -6 20 -6 24 0 18 -64 82 -101 101 -47 23 -139 25 -189 3z"/>
<path d="M3272 1281 c-100 -35 -162 -125 -162 -236 0 -79 14 -126 53 -176 45
-59 106 -88 185 -89 102 0 177 45 225 135 31 57 31 183 0 241 -31 59 -93 110
-154 128 -66 20 -82 20 -147 -3z"/>
</g>
</svg>
